<?xml version="1.0" standalone="no"?><!DOCTYPE svg PUBLIC "-//W3C//DTD SVG 1.1//EN" "http://www.w3.org/Graphics/SVG/1.1/DTD/svg11.dtd"><svg class="icon" height="512" viewBox="0 0 1024 1024" version="1.1" xmlns="http://www.w3.org/2000/svg"><path d="M169.208796 215.879746 63.059198 466.440361l53.078893 29.624714 120.956839-246.858294L169.208796 215.879746 169.208796 215.879746 169.208796 215.879746zM169.208796 215.879746M509.87357 380.037503l-104.908328 71.589478c0 0-148.120502 19.754926-72.827679-111.080911l137.009444-88.868003c0 0-22.727631-59.729359-158.353564 32.085766l-57.647955-19.745716-82.705654 232.047983 66.657142 70.357418c0 0 60.48149-54.308907 107.381659 8.650007 0 0 62.945611-65.425082 114.170273 32.080649 0 0 93.195565-35.782971 61.10059 91.346451 0 0 36.646642 23.605627 45.673226 65.418942 0 0 43.194778-3.699252 65.410756-53.084009 0 0 41.97602-6.15928 64.193021-50.597375 0 0 46.888913-9.872858 51.837622-45.673226L535.794939 380.042619C535.794939 380.037503 519.749498 371.399775 509.87357 380.037503L509.87357 380.037503 509.87357 380.037503 509.87357 380.037503zM509.87357 380.037503M277.515524 563.640124l-40.419572 46.290279c0 0-8.640798 51.843762 40.419572 40.732703l46.290279-51.841715C323.805804 598.821391 324.728826 555.314505 277.515524 563.640124L277.515524 563.640124 277.515524 563.640124 277.515524 563.640124zM277.515524 563.640124M367.31269 578.447365l-54.621015 68.511373c-14.808264 58.31822 50.92074 51.838645 50.92074 51.838645l62.951751-86.09382C405.27121 551.60809 367.31269 578.447365 367.31269 578.447365L367.31269 578.447365 367.31269 578.447365 367.31269 578.447365zM367.31269 578.447365M445.072705 631.223359l-57.398268 76.827783c-8.623401 53.982472 49.066509 49.997718 49.066509 49.997718l65.729004-77.765131C499.68758 617.338117 445.072705 631.223359 445.072705 631.223359L445.072705 631.223359 445.072705 631.223359 445.072705 631.223359zM445.072705 631.223359M493.211075 729.350237l-29.621645 36.421514c-8.646937 53.993728 38.886659 45.037752 38.886659 45.037752l34.246989-37.953404C551.537482 719.15913 493.211075 729.350237 493.211075 729.350237L493.211075 729.350237 493.211075 729.350237 493.211075 729.350237zM493.211075 729.350237M633.91977 263.708054c0 0-37.024242-25.922393-90.714048-17.585517L341.391321 381.27468c0 0-31.226189 64.231907 36.103266 53.691853l139.783627-87.019912c0 0 16.668635-3.705392 19.444864 2.774183l161.076582 175.889963 65.729004 72.208579c0 0 59.246359-9.265014 84.242659-96.27367L737.607294 296.110021C737.607294 296.110021 653.370775 314.623677 633.91977 263.708054L633.91977 263.708054 633.91977 263.708054 633.91977 263.708054zM633.91977 263.708054M832.02878 215.879746l-63.874773 59.856249 123.124202 226.811726 67.577095-43.512003L832.02878 215.879746 832.02878 215.879746 832.02878 215.879746zM832.02878 215.879746" /></svg>